<svg xmlns="http://www.w3.org/2000/svg" xmlns:xlink="http://www.w3.org/1999/xlink" viewBox="0 0 994.47 640.22">
  <defs>
    <pattern id="ea7db6a8-550b-4627-88b9-c1f156cfc5e2" data-name="SVGID 1 " width="18" height="12" patternTransform="matrix(1.22, -0.39, -0.39, -1.22, -2806.41, 5666.87)" patternUnits="userSpaceOnUse" viewBox="0 0 18 12">
      <rect width="18" height="12" fill="none"/>
      <g>
        <rect width="18" height="12" fill="none"/>
        <circle cx="18" r="2.72"/>
        <circle r="2.72"/>
        <circle cx="18" cy="12" r="2.72"/>
        <circle cx="9" cy="6" r="2.72"/>
        <circle cy="12" r="2.72"/>
      </g>
    </pattern>
  </defs>
  <g id="b056c422-e0f3-4921-9670-026b88119384" data-name="ARTWORK">
    <g>
      <rect x="311.94" y="581.24" width="78.47" height="127.56" transform="translate(-544.84 504.99) rotate(-57.12)"/>
      <rect x="301.41" y="240.32" width="380.95" height="398.91" stroke-width="2" stroke="#000" stroke-linecap="round" stroke-linejoin="round" fill="#47c3f1"/>
      <line x1="302.35" y1="388.45" x2="682.37" y2="388.45" fill="none" stroke="#000" stroke-linecap="round" stroke-linejoin="round" stroke-width="2"/>
      <rect x="385.26" y="312.67" width="212.51" height="10.09"/>
      <rect x="410.26" y="77.65" width="162.47" height="239.68" stroke-width="2" stroke="#000" stroke-linecap="round" stroke-linejoin="round" fill="#e0e0e0"/>
      <path d="M736.41,141.4" transform="translate(-163.67 -84.76)" fill="#e0e0e0" stroke="#000" stroke-linecap="round" stroke-linejoin="round" stroke-width="2"/>
      <line x1="549.63" y1="317.33" x2="491.43" y2="217.34" fill="none" stroke="#000" stroke-linecap="round" stroke-linejoin="round" stroke-width="2"/>
      <line x1="572.73" y1="77.65" x2="491.43" y2="217.34" fill="none" stroke="#000" stroke-linecap="round" stroke-linejoin="round" stroke-width="2"/>
      <rect x="719.31" y="336.26" width="237.05" height="145.82" transform="translate(-147.43 765.29) rotate(-54.25)" stroke-width="2" stroke="#000" stroke-linecap="round" stroke-linejoin="round" fill="#fff"/>
      <line x1="444.06" y1="318.18" x2="507.16" y2="246.84" fill="none" stroke="#000" stroke-linecap="round" stroke-linejoin="round" stroke-width="2"/>
      <line x1="410.27" y1="78.28" x2="507.16" y2="187.84" fill="none" stroke="#000" stroke-linecap="round" stroke-linejoin="round" stroke-width="2"/>
      <polygon points="416.1 278.96 524.53 251.94 416.1 224.92 473.67 129.15 377.89 186.71 350.88 78.28 323.86 186.71 228.08 129.15 285.65 224.92 177.22 251.94 285.65 278.96 228.08 374.73 323.86 317.17 350.88 425.6 377.89 317.17 473.67 374.73 416.1 278.96" fill="#0f775e" stroke="#000" stroke-linecap="round" stroke-linejoin="round" stroke-width="2"/>
      <path d="M754.19,239.42c0-18.58,6.85-33.65,15.3-33.65,8.88,0,8.88,12.91,17.77,12.91s8.88-12.91,17.77-12.91,8.88,12.91,17.76,12.91,8.89-12.91,17.77-12.91c8.45,0,15.3,15.07,15.3,33.65H754.19Z" transform="translate(-163.67 -84.76)" fill="#fff" stroke="#000" stroke-linecap="round" stroke-linejoin="round" stroke-width="2"/>
      <path d="M472.7,132.58c0-19.36,10.69-35.05,23.88-35.05,13.87,0,13.87,13.45,27.73,13.45s13.87-13.45,27.74-13.45S565.91,111,579.78,111s13.87-13.45,27.73-13.45c13.19,0,23.88,15.69,23.88,35.05H472.7Z" transform="translate(-163.67 -84.76)" fill="#fff" stroke="#000" stroke-linecap="round" stroke-linejoin="round" stroke-width="2"/>
      <circle cx="753.43" cy="87.73" r="86.61" fill="#ede73b" stroke="#000" stroke-linecap="round" stroke-linejoin="round" stroke-width="2"/>
      <g>
        <circle cx="608.9" cy="359.97" r="11.96" fill="none" stroke="#000" stroke-linecap="round" stroke-linejoin="round" stroke-width="2"/>
        <line x1="622" y1="341.78" x2="688.95" y2="248.77" fill="none" stroke="#000" stroke-linecap="round" stroke-linejoin="round" stroke-width="2"/>
      </g>
      <g>
        <circle cx="635.64" cy="379.22" r="11.96" fill="none" stroke="#000" stroke-linecap="round" stroke-linejoin="round" stroke-width="2"/>
        <line x1="648.73" y1="361.02" x2="715.69" y2="268.02" fill="none" stroke="#000" stroke-linecap="round" stroke-linejoin="round" stroke-width="2"/>
      </g>
      <g>
        <circle cx="663.28" cy="399.13" r="11.96" fill="#fc7ee4" stroke="#000" stroke-linecap="round" stroke-linejoin="round" stroke-width="2"/>
        <line x1="676.38" y1="380.93" x2="743.34" y2="287.93" fill="none" stroke="#000" stroke-linecap="round" stroke-linejoin="round" stroke-width="2"/>
        <line x1="656.24" y1="390.26" x2="670.94" y2="408.31" fill="none" stroke="#000" stroke-linecap="round" stroke-linejoin="round" stroke-width="2"/>
        <line x1="656.3" y1="408.83" x2="671.26" y2="390.21" fill="none" stroke="#000" stroke-linecap="round" stroke-linejoin="round" stroke-width="2"/>
      </g>
      <g>
        <g>
          <path d="M815.1,301.64A19,19,0,0,1,806,307a19.16,19.16,0,0,1-23.32-13.83c-1.87-7.31,1.55-14.41,6.11-19.31l.94-1.08,47-52.79" transform="translate(-163.67 -84.76)" fill="#fc7ee4" stroke="#000" stroke-linecap="round" stroke-linejoin="round" stroke-width="2"/>
          <path d="M862,267s-15.61-1.08-61.09,48.29h0" transform="translate(-163.67 -84.76)" fill="#fff" stroke="#332de5" stroke-linecap="round" stroke-linejoin="round" stroke-width="2"/>
          <path d="M1069,270.92,978.85,311A281.1,281.1,0,0,1,945,323.53l-76.51,23.89c-12.09,3.46-22.39,1.64-27.75-8.33a20.74,20.74,0,0,1,8.59-27.89l7.4-3.26,29.1-11.26c12.23-6.59,29.45-8.23,22.87-20.46A25.15,25.15,0,0,0,874.62,266s-15.41,2.72-47.63,61.6h0a21.41,21.41,0,0,1-8.18,8.12A21.74,21.74,0,0,1,791,329.57c-5.93-7.93-4.16-17.79-.13-25.08l.73-1.43,36.87-70.12s10.18-24.17,28.51-34c0,0,26.47-19.75,64.34-15.4l30.93,4.42s30.3,8.22,62.72-5.62c10.83-4.62,5.18-1.66,5.18-1.66Z" transform="translate(-163.67 -84.76)" fill="#fc7ee4" stroke="#000" stroke-linecap="round" stroke-linejoin="round" stroke-width="2"/>
          <path d="M874.18,323.22a11.89,11.89,0,0,1-3.6,13.17L858,340.76l-7.33-22,12.68-4.22a11.91,11.91,0,0,1,10.77,8.39" transform="translate(-163.67 -84.76)" fill="none" stroke="#11102e" stroke-linecap="round" stroke-linejoin="round" stroke-width="2"/>
          <path d="M817.77,253.2s2.4-6.55-1.82-9.91l15.72-17.65Z" transform="translate(-163.67 -84.76)" fill="#11102e" stroke="#11102e" stroke-linecap="round" stroke-linejoin="round" stroke-width="2"/>
          <path d="M820.13,248.52l-29.31,56,8.88,5.2s13.55-20.34,5.79-33.14" transform="translate(-163.67 -84.76)" fill="none" stroke="#11102e" stroke-linecap="round" stroke-linejoin="round" stroke-width="2"/>
          <path d="M786.16,277.07l5.66,5.1s13.67-15.27,10.59-23.67" transform="translate(-163.67 -84.76)" fill="none" stroke="#11102e" stroke-linecap="round" stroke-linejoin="round" stroke-width="2"/>
        </g>
        <polyline points="978.68 199.09 947.14 218.54 856.42 95.88 918.48 55.66" fill="none" stroke="#11102e" stroke-linecap="round" stroke-linejoin="round" stroke-width="2"/>
        <circle cx="899.3" cy="97.54" r="9.81"/>
        <line x1="905.33" y1="186.16" x2="918.35" y2="179.61" fill="none" stroke="#11102e" stroke-linecap="round" stroke-linejoin="round" stroke-width="2"/>
      </g>
      <polygon points="651.33 1 663.81 39.41 704.19 39.41 671.52 63.15 684 101.56 651.33 77.82 618.65 101.56 631.13 63.15 598.46 39.41 638.85 39.41 651.33 1" fill="red" stroke="#000" stroke-linecap="round" stroke-linejoin="round" stroke-width="2"/>
      <circle cx="495.46" cy="487.66" r="64.7" fill="#e0e0e0" stroke="#000" stroke-linecap="round" stroke-linejoin="round" stroke-width="2"/>
      <path d="M659.92,603.9a5.63,5.63,0,0,1-.71,0,7.55,7.55,0,0,1-5.29-2.91l-30.68-39.76a7.57,7.57,0,0,1,12-9.25l25.71,33.32,80.22-70.92a7.58,7.58,0,0,1,10.08,11.31L665,602A7.55,7.55,0,0,1,659.92,603.9Z" transform="translate(-163.67 -84.76)" fill="#ede73b" stroke="#000" stroke-linecap="round" stroke-linejoin="round" stroke-width="2"/>
      <path d="M218.49,232.26a26.89,26.89,0,0,0-26.9,26.89,26.9,26.9,0,0,0-26.92-26.89,26.9,26.9,0,0,0,26.92-26.9A26.9,26.9,0,0,0,218.49,232.26Z" transform="translate(-163.67 -84.76)" fill="#dd7800" stroke="#000" stroke-linecap="round" stroke-linejoin="round" stroke-width="2"/>
      <path d="M917.48,517.08a21.24,21.24,0,0,0-21.24,21.23A21.23,21.23,0,0,0,875,517.08a21.23,21.23,0,0,0,21.24-21.23A21.23,21.23,0,0,0,917.48,517.08Z" transform="translate(-163.67 -84.76)"/>
      <g style="isolation: isolate">
        <path d="M580.79,651.5h11l4.76,15.88,2.53,10.09,2.53-10.09,4.69-15.88h10.56l-12.16,37.8H593.14Z" transform="translate(-163.67 -84.76)"/>
        <path d="M636.49,690.13c-11.73,0-19.76-8-19.76-19.76s8-19.7,19.76-19.7c11.92,0,19.82,7.94,19.82,20C656.31,682.13,648.16,690.13,636.49,690.13Zm.06-8.42c5.44,0,9-4.41,9-11.22s-3.34-11.41-9.08-11.41-9,4.72-9,11.29C627.47,677.3,631,681.71,636.55,681.71Z" transform="translate(-163.67 -84.76)"/>
        <path d="M658,660.4v-8.9h33.59v8.9H680.15v28.9H669.4V660.4Z" transform="translate(-163.67 -84.76)"/>
        <path d="M695,651.5h31.8v8.42H705.46V666h18.9v7.7h-18.9v6.69H727.7v8.9H695Z" transform="translate(-163.67 -84.76)"/>
        <path d="M741.46,679.39v9.91H731.28v-9.91Zm-8.64-3.29-1.48-24.6H741.4l-1.48,24.6Z" transform="translate(-163.67 -84.76)"/>
      </g>
      <g>
        <ellipse cx="333.75" cy="235.61" rx="5.62" ry="12.78"/>
        <ellipse cx="361.78" cy="235.61" rx="5.62" ry="12.78"/>
        <circle cx="511.44" cy="342.16" r="8.32" transform="translate(-71.9 707.42) rotate(-80.78)"/>
        <path d="M497.16,354.88a14.79,14.79,0,0,0,28.56,0" transform="translate(-163.67 -84.76)" fill="none" stroke="#000" stroke-linecap="round" stroke-linejoin="round" stroke-width="2"/>
      </g>
      <path d="M937.69,153.07c5.41-1.39,18-11.31,22.76-14.21a23.52,23.52,0,0,1,19.7-2.09c3.75,1.3,7.25,3.59,11.21,3.88a18.05,18.05,0,0,0,6.85-1.08c6.22-2,12-5.41,18.33-6.83s14-.3,17.74,5.06a17.54,17.54,0,0,1,2.63,7.4,39.11,39.11,0,0,1,.44,7.87H937.69Z" transform="translate(-163.67 -84.76)" fill="#fff" stroke="#000" stroke-linecap="round" stroke-linejoin="round" stroke-width="2"/>
      <g>
        <path d="M1041.49,698.37H887a19.61,19.61,0,0,1-19.6-19.6V583.62A19.6,19.6,0,0,1,887,564h154.53a19.6,19.6,0,0,1,19.6,19.6v95.15A19.61,19.61,0,0,1,1041.49,698.37Z" transform="translate(-163.67 -84.76)" fill="#fff" stroke="#000" stroke-linecap="round" stroke-linejoin="round" stroke-width="2"/>
        <line x1="703.69" y1="509.08" x2="897.41" y2="509.08" fill="none" stroke="#000" stroke-linecap="round" stroke-linejoin="round" stroke-width="2"/>
        <g>
          <circle cx="725.96" cy="495.11" r="6.61" fill="red" stroke="#000" stroke-linecap="round" stroke-linejoin="round" stroke-width="2"/>
          <circle cx="746.36" cy="495.11" r="6.61" fill="#ede73b" stroke="#000" stroke-linecap="round" stroke-linejoin="round" stroke-width="2"/>
          <circle cx="766.76" cy="495.11" r="6.61" fill="#0f775e" stroke="#000" stroke-linecap="round" stroke-linejoin="round" stroke-width="2"/>
        </g>
        <g>
          <polygon points="748.72 522.7 728.61 552.69 728.61 571.74 738.66 578.8 765.65 578.8 770.24 589.74 780.12 589.74 783.65 601.03 789.29 601.03 800.23 587.27 811.88 587.27 831.13 587.27 833.95 603.5 839.4 603.5 839.4 579.86 856.68 569.63 856.68 556.92 890.2 535.4 887.73 527.99 845.75 547.75 846.8 533.28 837.98 537.16 830.93 544.93 830.93 522.35 748.72 522.7" fill="#ede73b" stroke="#000" stroke-linecap="round" stroke-linejoin="round" stroke-width="2" fill-rule="evenodd"/>
          <polygon points="856.68 559.26 839.4 569.5 839.4 593.14 833.04 593.14 830.22 576.91 811.88 576.91 800.23 576.91 789.29 590.67 783.65 590.67 780.12 579.38 770.24 579.38 765.65 568.44 738.66 568.44 728.61 561.38 728.61 571.74 738.66 578.8 765.83 578.8 770.24 589.74 780.12 589.74 783.65 601.03 789.29 601.03 799.75 587.45 830.46 587.45 833.95 603.5 839.4 603.5 841.14 578.88 856.68 569.63 856.68 559.26" stroke="#000" stroke-linecap="round" stroke-linejoin="round" stroke-width="2" fill-rule="evenodd"/>
          <path d="M1024.31,583.62" transform="translate(-163.67 -84.76)" fill="none" stroke="#232123" stroke-miterlimit="10" stroke-width="3"/>
        </g>
        <circle cx="780.46" cy="546.43" r="12.64" fill="red" stroke="#000" stroke-linecap="round" stroke-linejoin="round" stroke-width="2"/>
        <circle cx="762.14" cy="531.77" r="4.62" fill="red" stroke="#000" stroke-linecap="round" stroke-linejoin="round" stroke-width="2"/>
        <circle cx="804.91" cy="557.95" r="7.96" fill="#47c3f1" stroke="#000" stroke-linecap="round" stroke-linejoin="round" stroke-width="2"/>
        <circle cx="749.68" cy="549.99" r="12.46" fill="#47c3f1" stroke="#000" stroke-linecap="round" stroke-linejoin="round" stroke-width="2"/>
        <circle cx="857.95" cy="547.31" r="4.63" fill="#47c3f1" stroke="#000" stroke-linecap="round" stroke-linejoin="round" stroke-width="2"/>
        <circle cx="829.5" cy="557.95" r="9.28" fill="red" stroke="#000" stroke-linecap="round" stroke-linejoin="round" stroke-width="2"/>
        <circle cx="812.87" cy="533.8" r="5.63" fill="red" stroke="#000" stroke-linecap="round" stroke-linejoin="round" stroke-width="2"/>
        <circle cx="786.09" cy="569.36" r="5.63" fill="red" stroke="#000" stroke-linecap="round" stroke-linejoin="round" stroke-width="2"/>
      </g>
      <polygon points="562.15 93.33 546.47 77.65 571.27 77.65 562.15 93.33" fill="#11102e" stroke="#11102e" stroke-linecap="round" stroke-linejoin="round" stroke-width="2"/>
      <g>
        <g>
          <path d="M1074.86,573.9h-59.07a7.08,7.08,0,0,1-7.08-7.08V512.21a7.08,7.08,0,0,1,7.08-7.08h59.07a7.08,7.08,0,0,1,7.08,7.08v54.61A7.08,7.08,0,0,1,1074.86,573.9Z" transform="translate(-163.67 -84.76)" fill="#fff" stroke="#000" stroke-linecap="round" stroke-linejoin="round" stroke-width="2"/>
          <line x1="845.03" y1="436.98" x2="918.26" y2="436.98" fill="none" stroke="#000" stroke-linecap="round" stroke-linejoin="round" stroke-width="2"/>
        </g>
        <g>
          <circle cx="854.97" cy="429.4" r="2.92"/>
          <circle cx="863.99" cy="429.4" r="2.92"/>
          <circle cx="873.01" cy="429.4" r="2.92"/>
        </g>
        <polygon points="900.13 412.71 914.92 431.48 851.44 489.14 882.72 489.14 927.96 448.04 941.97 465.59 963.74 402.33 900.13 412.71" fill="#0f775e" stroke="#000" stroke-linecap="round" stroke-linejoin="round" stroke-width="2"/>
      </g>
      <g>
        <polygon points="890.63 368.71 795.33 447.69 746.75 389.07 842.05 310.08 890.63 368.71" stroke="#000" stroke-linecap="round" stroke-linejoin="round" stroke-width="2" fill="url(#ea7db6a8-550b-4627-88b9-c1f156cfc5e2)"/>
        <g>
          <rect x="987.45" y="355.96" width="169.28" height="104.12" transform="translate(-166.9 -76.17) rotate(-0.46)" stroke-width="2" stroke="#000" stroke-linecap="round" stroke-linejoin="round" fill="#fff"/>
          <polyline points="823.34 271.86 908.47 222.16 992.6 270.51" fill="none" stroke="#000" stroke-linecap="round" stroke-linejoin="round" stroke-width="2"/>
          <line x1="993.43" y1="374.62" x2="928.9" y2="307.63" fill="none" stroke="#000" stroke-linecap="round" stroke-linejoin="round" stroke-width="2"/>
          <line x1="886.88" y1="308.77" x2="824.17" y2="375.98" fill="none" stroke="#000" stroke-linecap="round" stroke-linejoin="round" stroke-width="2"/>
        </g>
        <polyline points="992.21 270.68 907.07 320.37 822.94 272.03" stroke="#000" stroke-linecap="round" stroke-linejoin="round" stroke-width="2"/>
        <polygon points="907.07 320.37 966.59 285.63 966.59 250.11 852.03 250.11 852.03 288.75 907.07 320.37" fill="#47c3f1" stroke="#000" stroke-linecap="round" stroke-linejoin="round" stroke-width="2"/>
        <rect x="934.05" y="260.68" width="22.79" height="20.9" stroke-width="2" stroke="#000" stroke-linecap="round" stroke-linejoin="round" fill="#fff"/>
      </g>
      <g>
        <rect x="37.6" y="316.25" width="350.77" height="215.76" stroke-width="2" stroke="#000" stroke-linecap="round" stroke-linejoin="round" fill="#fff2ed"/>
        <rect x="61.06" y="339.03" width="303.86" height="170.19" stroke-width="2" stroke="#000" stroke-linecap="round" stroke-linejoin="round" fill="#fff2ed"/>
        <g>
          <polygon points="124.16 339.03 147.03 316.25 99.64 316.25 76.76 339.03 124.16 339.03" fill="red" stroke="#000" stroke-linecap="round" stroke-linejoin="round" stroke-width="2"/>
          <polygon points="61.06 354.68 37.6 378.04 37.6 425.25 61.06 401.88 61.06 354.68" fill="red" stroke="#000" stroke-linecap="round" stroke-linejoin="round" stroke-width="2"/>
        </g>
        <g>
          <polygon points="233.48 339.03 256.36 316.25 208.96 316.25 186.09 339.03 233.48 339.03" fill="red" stroke="#000" stroke-linecap="round" stroke-linejoin="round" stroke-width="2"/>
          <polygon points="61.06 509.34 61.06 463.57 37.6 486.94 37.6 532.01 39.75 532.01 62.51 509.34 61.06 509.34" fill="red" stroke="#000" stroke-linecap="round" stroke-linejoin="round" stroke-width="2"/>
        </g>
        <polygon points="124.56 509.22 101.68 532.01 149.07 532.01 171.95 509.22 124.56 509.22" fill="red" stroke="#000" stroke-linecap="round" stroke-linejoin="round" stroke-width="2"/>
        <polygon points="342.8 339.03 365.68 316.25 318.29 316.25 295.41 339.03 336.16 339.03 342.8 339.03" fill="red" stroke="#000" stroke-linecap="round" stroke-linejoin="round" stroke-width="2"/>
        <g>
          <polygon points="233.88 509.22 211 532.01 258.39 532.01 281.27 509.22 233.88 509.22" fill="red" stroke="#000" stroke-linecap="round" stroke-linejoin="round" stroke-width="2"/>
          <polygon points="364.92 378.7 364.92 425.9 388.37 402.54 388.37 355.33 364.92 378.7" fill="red" stroke="#000" stroke-linecap="round" stroke-linejoin="round" stroke-width="2"/>
        </g>
        <polygon points="364.92 487.59 364.92 509.22 343.2 509.22 320.33 532.01 367.72 532.01 388.37 511.44 388.37 464.23 364.92 487.59" fill="red" stroke="#000" stroke-linecap="round" stroke-linejoin="round" stroke-width="2"/>
        <g>
          <path d="M329.41,543.34c-6.6,0-6.6-6.77-13.2-6.77s-6.61,6.77-13.21,6.77-6.6-6.77-13.21-6.77-6.6,6.77-13.2,6.77-6.61-6.77-13.21-6.77-6.61,6.77-13.22,6.77" transform="translate(-163.67 -84.76)" fill="none" stroke="#000" stroke-linecap="round" stroke-linejoin="round" stroke-width="2"/>
          <path d="M329.41,555.34c-6.6,0-6.6-6.77-13.2-6.77s-6.61,6.77-13.21,6.77-6.6-6.77-13.21-6.77-6.6,6.77-13.2,6.77-6.61-6.77-13.21-6.77-6.61,6.77-13.22,6.77" transform="translate(-163.67 -84.76)" fill="none" stroke="#000" stroke-linecap="round" stroke-linejoin="round" stroke-width="2"/>
          <path d="M329.41,567.34c-6.6,0-6.6-6.77-13.2-6.77s-6.61,6.77-13.21,6.77-6.6-6.77-13.21-6.77-6.6,6.77-13.2,6.77-6.61-6.77-13.21-6.77-6.61,6.77-13.22,6.77" transform="translate(-163.67 -84.76)" fill="none" stroke="#000" stroke-linecap="round" stroke-linejoin="round" stroke-width="2"/>
        </g>
        <g>
          <g>
            <path d="M508.29,493.5c-1.42,4.84-11.85,4.93-14.83,8.62s-1,14-5.3,16.33-11.7-4.92-16.59-4.39c-4.73.51-10.45,9.22-15.29,7.8S451.35,510,447.66,507c-3.84-3.09-14-1-16.33-5.29s4.92-11.7,4.39-16.6c-.51-4.72-9.23-10.44-7.8-15.28s11.85-4.93,14.84-8.63,1-14,5.29-16.33,11.7,4.92,16.6,4.4c4.72-.51,10.44-9.23,15.28-7.81s4.93,11.86,8.63,14.84,14,1,16.33,5.3-4.92,11.7-4.4,16.59C501,482.94,509.72,488.66,508.29,493.5Z" transform="translate(-163.67 -84.76)" fill="#47c3f1" stroke="#000" stroke-linecap="round" stroke-linejoin="round" stroke-width="2"/>
            <path d="M508.29,493.5c-1.42,4.84-11.85,4.93-14.83,8.62s-1,14-5.3,16.33-11.7-4.92-16.59-4.39c-4.73.51-10.45,9.22-15.29,7.8S451.35,510,447.66,507c-3.84-3.09-14-1-16.33-5.29s4.92-11.7,4.39-16.6c-.51-4.72-9.23-10.44-7.8-15.28s11.85-4.93,14.84-8.63,1-14,5.29-16.33,11.7,4.92,16.6,4.4c4.72-.51,10.44-9.23,15.28-7.81s4.93,11.86,8.63,14.84,14,1,16.33,5.3-4.92,11.7-4.4,16.59C501,482.94,509.72,488.66,508.29,493.5Z" transform="translate(-163.67 -84.76)" fill="none" stroke="#000" stroke-linecap="round" stroke-linejoin="round" stroke-width="2"/>
          </g>
          <circle cx="304.43" cy="396.91" r="22.46" fill="#fff" stroke="#000" stroke-linecap="round" stroke-linejoin="round" stroke-width="2"/>
        </g>
      </g>
      <g>
        <path d="M420.93,406.36c6.85.49,14.06.17,20.05-3.18,10.54-5.91,14.28-19.73,12.48-31.67s-7.9-22.72-12.85-33.73a185.53,185.53,0,0,1-15.36-57.7H401.63V406.54Z" transform="translate(-163.67 -84.76)" fill="#ede73b" stroke="#000" stroke-linecap="round" stroke-linejoin="round" stroke-width="2"/>
        <path d="M355.61,343.31l8.18,147.82c-13,.51-25.74-8.62-29.44-21.08h0c-7.41,4.45-17,4.06-24.49-.3-5.37-3.13-9.36-8.25-12.15-13.8s-4.49-11.59-6.17-17.57l-1.2-.76A31.55,31.55,0,0,1,263.65,423h0a207.53,207.53,0,0,1,4-224.85h-.33V182.59H424.72v153l-8.61,155.5v-2.28a26.16,26.16,0,0,1-52.32,0" transform="translate(-163.67 -84.76)" fill="#ede73b" stroke="#000" stroke-linecap="round" stroke-linejoin="round" stroke-width="2"/>
        <path d="M334.35,470.05,325,426.25a320.57,320.57,0,0,1-7-66.53V343.31" transform="translate(-163.67 -84.76)" fill="none" stroke="#000" stroke-linecap="round" stroke-linejoin="round" stroke-width="2"/>
        <path d="M290.33,437.62" transform="translate(-163.67 -84.76)" fill="none" stroke="#000" stroke-linecap="round" stroke-linejoin="round" stroke-width="2"/>
        <line x1="127.87" y1="353.61" x2="99.13" y2="260.74" fill="none" stroke="#000" stroke-linecap="round" stroke-linejoin="round" stroke-width="2"/>
        <path d="M373.84,509.14V494a16.62,16.62,0,0,1,16.62-16.62h0A16.62,16.62,0,0,1,407.08,494v14.67" transform="translate(-163.67 -84.76)" fill="none" stroke="#000" stroke-linecap="round" stroke-linejoin="round" stroke-width="2"/>
        <path d="M340.23,458.39" transform="translate(-163.67 -84.76)" fill="none" stroke="#000" stroke-linecap="round" stroke-linejoin="round" stroke-width="2"/>
        <path d="M308.52,468.38l-4.34-14.55a16.62,16.62,0,0,1,11.18-20.68h0a16.52,16.52,0,0,1,11.29.65" transform="translate(-163.67 -84.76)" fill="none" stroke="#000" stroke-linecap="round" stroke-linejoin="round" stroke-width="2"/>
        <path d="M375.74,478.88" transform="translate(-163.67 -84.76)" fill="none" stroke="#000" stroke-linecap="round" stroke-linejoin="round" stroke-width="2"/>
        <path d="M342.79,483.29,341,468.2a16.61,16.61,0,0,1,14.56-18.45h0a16.62,16.62,0,0,1,5.95.37" transform="translate(-163.67 -84.76)" fill="none" stroke="#000" stroke-linecap="round" stroke-linejoin="round" stroke-width="2"/>
        <path d="M451.75,366.18l-10.35,4.31s-10.08-20.76-1.19-31.76" transform="translate(-163.67 -84.76)" fill="none" stroke="#11102e" stroke-linecap="round" stroke-linejoin="round" stroke-width="2"/>
        <g>
          <path d="M393.41,316.6c-12.26,0-12.26-8-24.52-8s-12.26,8-24.52,8-12.26-8-24.51-8-12.27,8-24.53,8-12.26-8-24.52-8" transform="translate(-163.67 -84.76)" fill="#ede73b"/>
          <path d="M393.41,316.6c-12.26,0-12.26-8-24.52-8s-12.26,8-24.52,8-12.26-8-24.51-8-12.27,8-24.53,8-12.26-8-24.52-8" transform="translate(-163.67 -84.76)" fill="none" stroke="#000" stroke-linecap="round" stroke-linejoin="round" stroke-width="2"/>
        </g>
      </g>
      <polygon points="237.96 97.83 260.6 120.46 260.6 97.83 237.96 97.83"/>
      <polyline points="275.19 29.59 275.19 97.66 83.88 122.6 83.88 26.77" fill="#fff" stroke="#000" stroke-linecap="round" stroke-linejoin="round" stroke-width="2"/>
      <line x1="499.82" y1="77.65" x2="499.82" y2="1" fill="none" stroke="#000" stroke-linecap="round" stroke-linejoin="round" stroke-width="2"/>
      <line x1="524.04" y1="29.59" x2="524.04" y2="77.65" fill="none" stroke="#000" stroke-linecap="round" stroke-linejoin="round" stroke-width="2"/>
      <line x1="548.27" y1="77.65" x2="548.27" y2="57.86" fill="none" stroke="#11102e" stroke-linecap="round" stroke-linejoin="round" stroke-width="2"/>
      <line x1="275.19" y1="47.81" x2="83.88" y2="72.75" fill="none" stroke="#000" stroke-linecap="round" stroke-linejoin="round" stroke-width="2"/>
      <circle cx="113.5" cy="92.46" r="9.81"/>
      <g>
        <line x1="866.91" y1="260.06" x2="897.74" y2="260.06" fill="none" stroke="#000" stroke-linecap="round" stroke-linejoin="round" stroke-width="2"/>
        <line x1="866.91" y1="266.88" x2="897.74" y2="266.88" fill="none" stroke="#000" stroke-linecap="round" stroke-linejoin="round" stroke-width="2"/>
        <line x1="866.91" y1="273.94" x2="897.74" y2="273.94" fill="none" stroke="#000" stroke-linecap="round" stroke-linejoin="round" stroke-width="2"/>
      </g>
    </g>
  </g>
</svg>
